<svg width="512" height="512" viewBox="0 0 512 512" xmlns="http://www.w3.org/2000/svg">
  <!-- Background circle -->
  <circle cx="256" cy="256" r="256" fill="#2C3E50"/>

  <!-- Octopus body -->
  <circle cx="256" cy="220" r="100" fill="#E74C3C"/>

  <!-- Octopus eyes -->
  <circle cx="230" cy="200" r="15" fill="#FFFFFF"/>
  <circle cx="282" cy="200" r="15" fill="#FFFFFF"/>
  <circle cx="235" cy="205" r="8" fill="#2C3E50"/>
  <circle cx="287" cy="205" r="8" fill="#2C3E50"/>

  <!-- Octopus tentacles (8 tentacles) -->
  <path d="M 200 280 Q 160 320 140 380" stroke="#E74C3C" stroke-width="18" fill="none" stroke-linecap="round"/>
  <path d="M 220 290 Q 180 340 160 400" stroke="#E74C3C" stroke-width="18" fill="none" stroke-linecap="round"/>
  <path d="M 240 300 Q 210 360 200 420" stroke="#E74C3C" stroke-width="18" fill="none" stroke-linecap="round"/>
  <path d="M 256 305 Q 250 370 245 430" stroke="#E74C3C" stroke-width="18" fill="none" stroke-linecap="round"/>

  <path d="M 272 305 Q 278 370 283 430" stroke="#E74C3C" stroke-width="18" fill="none" stroke-linecap="round"/>
  <path d="M 292 300 Q 318 360 328 420" stroke="#E74C3C" stroke-width="18" fill="none" stroke-linecap="round"/>
  <path d="M 312 290 Q 348 340 368 400" stroke="#E74C3C" stroke-width="18" fill="none" stroke-linecap="round"/>
  <path d="M 332 280 Q 368 320 388 380" stroke="#E74C3C" stroke-width="18" fill="none" stroke-linecap="round"/>

  <!-- Mouse cursor overlay -->
  <g transform="translate(320, 140)">
    <path d="M 0 0 L 0 40 L 12 32 L 18 48 L 24 46 L 18 30 L 28 28 Z" fill="#FFFFFF" stroke="#2C3E50" stroke-width="2"/>
  </g>

  <!-- Keyboard key overlay -->
  <g transform="translate(160, 140)">
    <rect x="0" y="0" width="32" height="32" rx="4" fill="#FFFFFF" stroke="#2C3E50" stroke-width="2"/>
    <text x="16" y="22" text-anchor="middle" font-family="Arial, sans-serif" font-size="18" font-weight="bold" fill="#2C3E50">K</text>
  </g>

  <!-- Sparkle effects -->
  <circle cx="380" cy="100" r="4" fill="#3498DB"/>
  <circle cx="400" cy="130" r="3" fill="#3498DB"/>
  <circle cx="130" cy="100" r="4" fill="#3498DB"/>
  <circle cx="110" cy="130" r="3" fill="#3498DB"/>
</svg>
